<?xml version="1.0" standalone="no"?>
<!DOCTYPE svg PUBLIC "-//W3C//DTD SVG 20010904//EN"
 "http://www.w3.org/TR/2001/REC-SVG-20010904/DTD/svg10.dtd">
<svg version="1.0" xmlns="http://www.w3.org/2000/svg"
 width="1000.000000pt" height="1000.000000pt" viewBox="0 0 1000.000000 1000.000000"
 preserveAspectRatio="xMidYMid meet">

<g transform="translate(0.000000,1000.000000) scale(0.100000,-0.100000)"
fill="#000000" stroke="none">
<path d="M4830 9565 c-30 -16 -29 -15 -203 -395 -145 -317 -148 -324 -272
-595 -46 -99 -105 -229 -133 -290 -27 -60 -59 -130 -70 -155 -12 -25 -100
-218 -197 -429 -96 -212 -177 -386 -178 -388 -2 -1 -86 36 -188 83 -566 264
-1248 578 -1271 586 -87 31 -166 -81 -109 -154 11 -13 53 -39 93 -58 40 -18
141 -64 223 -103 83 -38 177 -82 210 -97 33 -15 209 -96 390 -180 182 -84 364
-168 405 -187 l75 -35 -145 -72 c-1025 -511 -1748 -1485 -1935 -2605 -35 -209
-45 -346 -45 -596 1 -341 31 -594 110 -899 69 -268 154 -495 278 -736 64 -126
158 -287 173 -296 4 -2 13 13 20 36 11 38 10 44 -30 131 -117 251 -221 624
-261 939 -6 47 -16 126 -23 175 -8 58 -12 237 -12 505 0 433 8 537 61 830 76
417 209 782 384 1049 30 47 69 109 84 136 56 97 188 289 268 389 109 136 388
412 518 512 234 181 566 374 790 459 41 16 80 33 86 39 6 6 114 236 239 511
125 275 243 534 262 575 19 41 54 120 78 175 23 55 52 120 63 145 12 25 109
245 216 488 210 476 204 458 150 501 -31 24 -68 26 -104 6z"/>
<path d="M4740 7459 c-115 -12 -236 -29 -332 -46 l-86 -15 -26 -60 c-15 -34
-24 -63 -21 -66 3 -3 49 4 102 16 250 53 382 66 663 67 317 0 526 -25 812
-100 605 -156 1129 -471 1565 -940 206 -221 368 -457 508 -740 140 -281 221
-515 279 -805 48 -240 59 -358 60 -625 0 -346 -19 -492 -124 -920 -84 -343
-145 -517 -266 -757 -178 -355 -380 -633 -669 -924 -461 -463 -984 -771 -1559
-919 -105 -27 -312 -65 -354 -65 -17 0 -51 -26 -117 -89 -51 -48 -114 -103
-140 -122 l-47 -34 93 -3 c118 -4 401 22 579 53 1447 250 2597 1364 2895 2805
50 241 67 415 68 690 0 249 -9 386 -39 580 -178 1153 -906 2146 -1949 2659
-416 205 -773 307 -1245 356 -145 15 -525 18 -650 4z"/>
<path d="M2657 5829 c-89 -14 -165 -75 -202 -162 -21 -52 -19 -162 4 -214 59
-129 219 -189 346 -129 141 67 195 224 125 363 -54 108 -153 160 -273 142z
m136 -65 c149 -75 165 -283 29 -378 -85 -60 -218 -44 -285 35 -80 93 -75 212
12 299 70 69 161 86 244 44z"/>
<path d="M2650 5672 c-91 -45 -70 -205 31 -227 39 -9 89 21 106 63 12 29 11
32 -4 32 -10 0 -26 -14 -35 -30 -14 -24 -24 -30 -51 -30 -44 0 -59 18 -65 78
-7 81 51 124 106 77 16 -14 37 -25 46 -25 29 0 -8 56 -45 69 -42 14 -48 14
-89 -7z"/>
<path d="M2315 4534 c-16 -8 -38 -23 -49 -32 -46 -42 -46 -43 -46 -555 l0
-484 23 -34 c12 -19 42 -44 67 -57 l45 -23 460 3 c441 3 461 4 495 23 21 12
44 39 58 65 22 44 22 47 22 510 0 463 0 466 -22 510 -17 33 -35 51 -68 68 -44
22 -47 22 -500 22 -393 0 -459 -2 -485 -16z m545 -564 l0 -470 -55 0 -55 0 0
463 c0 255 3 467 7 470 3 4 28 7 55 7 l48 0 0 -470z"/>
<path d="M3565 4530 c-22 -11 -50 -35 -63 -53 l-23 -34 3 -501 3 -501 35 -36
c19 -19 50 -40 70 -45 51 -14 892 -13 941 1 21 7 53 27 71 46 l33 34 3 501 3
501 -23 34 c-13 18 -41 42 -64 53 -38 19 -62 20 -495 20 -433 0 -456 -1 -494
-20z m705 -116 c71 -32 151 -112 180 -179 11 -26 20 -50 20 -55 0 -8 -84 -30
-113 -30 -7 0 -19 16 -26 37 -23 62 -86 121 -149 139 -158 46 -321 -37 -368
-189 -39 -129 -24 -323 34 -417 77 -126 276 -168 396 -83 49 35 70 64 99 134
l23 56 59 -17 c70 -18 70 -21 24 -117 -37 -78 -118 -153 -197 -184 -82 -33
-230 -33 -325 0 -199 68 -310 332 -252 604 35 165 162 292 328 327 75 16 200
4 267 -26z"/>
<path d="M4824 4531 c-23 -10 -52 -34 -65 -52 l-24 -34 -2 -485 -3 -485 23
-40 c14 -26 37 -48 67 -62 44 -23 47 -23 495 -23 448 0 451 0 495 23 24 12 53
35 64 50 20 28 21 42 24 521 l3 492 -24 34 c-12 19 -40 45 -62 57 -40 23 -42
23 -495 23 -422 0 -458 -2 -496 -19z m258 -433 c4 -287 8 -339 23 -375 22 -54
72 -99 127 -114 59 -15 194 -7 241 15 92 45 107 113 107 509 l0 297 65 0 65 0
0 -299 c0 -403 -15 -479 -107 -561 -74 -65 -138 -84 -273 -84 -96 0 -125 4
-175 24 -85 33 -140 89 -172 175 -26 69 -26 73 -31 408 l-4 337 65 0 64 0 5
-332z"/>
<path d="M6066 4468 c-9 -46 -19 -91 -22 -100 -5 -17 8 -18 172 -18 l177 0 -6
-42 c-3 -24 -22 -119 -42 -213 -20 -93 -40 -190 -45 -215 -5 -25 -30 -144 -55
-265 -25 -121 -49 -235 -52 -252 l-6 -33 121 0 c106 0 121 2 126 18 3 9 21 96
41 192 48 238 84 407 95 455 12 49 70 339 70 348 0 4 47 7 104 7 l104 0 5 -27
c3 -16 20 -116 37 -223 18 -107 53 -323 79 -480 l47 -285 123 0 122 0 75 145
c41 80 181 353 310 608 l235 462 -113 0 -113 0 -230 -455 c-126 -250 -232
-455 -235 -455 -3 0 -14 53 -23 118 -10 64 -27 171 -37 237 -11 66 -31 197
-45 290 -14 94 -29 190 -33 215 l-7 45 -481 3 -481 2 -17 -82z"/>
<path d="M3290 3190 c-34 -36 -45 -93 -37 -183 9 -103 65 -149 135 -112 37 20
37 20 40 93 l3 72 -41 0 c-36 0 -40 -2 -40 -25 0 -18 5 -25 20 -25 14 0 20 -7
20 -23 0 -29 -18 -47 -46 -47 -36 0 -54 36 -54 110 0 74 18 110 54 110 15 0
27 -9 34 -25 17 -37 46 -22 38 19 -13 67 -79 86 -126 36z"/>
<path d="M3767 3209 c-35 -21 -51 -70 -52 -159 0 -97 21 -148 68 -164 60 -21
106 34 114 139 11 134 -55 228 -130 184z m79 -84 c18 -44 18 -106 -1 -151 -12
-30 -19 -35 -42 -32 -23 2 -31 11 -41 43 -15 43 -10 120 8 155 6 12 21 20 36
20 19 0 28 -8 40 -35z"/>
<path d="M4691 3204 c-34 -25 -51 -75 -51 -156 0 -86 27 -154 66 -164 73 -18
114 40 114 161 0 42 -6 90 -14 109 -15 35 -50 66 -76 66 -9 0 -26 -7 -39 -16z
m76 -70 c37 -57 14 -194 -33 -194 -36 0 -54 36 -54 110 0 100 46 145 87 84z"/>
<path d="M5778 3210 c-22 -13 -31 -57 -19 -98 8 -27 6 -39 -9 -65 -55 -90 11
-205 87 -152 18 13 22 13 34 -1 11 -14 14 -13 25 8 10 19 10 26 -2 39 -8 9
-13 32 -11 54 2 39 -18 61 -25 28 -4 -15 -7 -13 -18 9 -11 23 -10 32 4 62 22
46 20 82 -4 106 -22 22 -37 24 -62 10z m49 -60 c4 -21 -13 -44 -26 -36 -6 4
-11 18 -11 32 0 19 5 25 17 22 10 -2 19 -10 20 -18z m-14 -156 c14 -28 15 -39
6 -50 -30 -36 -69 9 -50 59 14 36 24 34 44 -9z"/>
<path d="M6305 3195 c-18 -17 -25 -34 -24 -62 1 -57 12 -75 60 -104 36 -21 44
-31 44 -55 0 -24 -4 -30 -27 -32 -22 -3 -30 2 -40 25 -7 15 -13 29 -14 31 0 1
-8 0 -16 -3 -12 -5 -14 -14 -8 -41 11 -47 37 -74 72 -74 53 0 86 56 75 126 -7
44 -20 60 -69 85 -28 14 -38 26 -38 43 0 35 27 40 54 11 30 -32 46 -32 46 0 0
31 -41 75 -70 75 -11 0 -32 -11 -45 -25z"/>
<path d="M2240 3050 c0 -153 1 -160 20 -160 17 0 20 7 20 51 0 77 31 120 44
62 4 -16 14 -47 23 -70 13 -35 21 -43 40 -43 20 0 24 4 18 18 -4 9 -21 54 -37
99 l-30 81 31 55 c37 65 37 67 9 67 -18 0 -31 -15 -58 -66 l-35 -66 -3 66 c-3
58 -5 66 -22 66 -19 0 -20 -8 -20 -160z"/>
<path d="M2440 3050 l0 -160 70 0 c68 0 70 1 70 25 0 23 -3 25 -50 25 l-50 0
0 45 0 45 45 0 c41 0 45 2 45 25 0 23 -4 25 -45 25 l-45 0 0 40 0 40 50 0 c47
0 50 2 50 25 0 24 -2 25 -70 25 l-70 0 0 -160z"/>
<path d="M2620 3050 l0 -160 69 0 c60 0 69 3 74 19 7 27 0 31 -55 31 l-48 0 0
44 0 45 48 3 c40 3 47 6 50 26 3 20 0 22 -47 22 l-51 0 0 40 0 40 50 0 c47 0
50 2 50 25 0 24 -2 25 -70 25 l-70 0 0 -160z"/>
<path d="M2800 3050 c0 -153 1 -160 20 -160 18 0 20 7 20 60 l0 60 35 0 c25 0
39 6 49 23 21 32 29 72 22 112 -10 51 -29 65 -92 65 l-54 0 0 -160z m100 91
c5 -11 10 -26 10 -35 0 -21 -28 -46 -51 -46 -16 0 -19 7 -19 50 0 46 2 50 25
50 14 0 29 -8 35 -19z"/>
<path d="M2980 3050 c0 -153 1 -160 20 -160 19 0 20 7 20 160 0 153 -1 160
-20 160 -19 0 -20 -7 -20 -160z"/>
<path d="M3060 3050 c0 -134 2 -160 15 -160 11 0 15 20 17 98 3 106 2 106 50
-20 23 -60 34 -78 49 -78 18 0 19 9 19 160 0 153 -1 160 -20 160 -19 0 -20 -7
-21 -97 l0 -98 -37 98 c-27 73 -41 97 -54 97 -17 0 -18 -13 -18 -160z"/>
<path d="M3552 3128 c24 -61 33 -104 36 -160 3 -69 6 -78 23 -78 17 0 19 8 19
69 0 67 6 91 49 199 l21 52 -24 0 c-19 0 -26 -9 -41 -55 -11 -30 -22 -55 -25
-55 -4 0 -15 25 -25 55 -16 45 -23 55 -42 55 l-22 0 31 -82z"/>
<path d="M3930 3085 c0 -143 13 -190 54 -201 37 -9 74 3 87 28 7 12 14 84 17
160 5 136 4 138 -17 138 -20 0 -21 -4 -21 -116 0 -120 -8 -154 -38 -154 -36 0
-42 20 -42 147 0 116 -1 123 -20 123 -19 0 -20 -7 -20 -125z"/>
<path d="M4200 3050 c0 -153 1 -160 20 -160 19 0 20 7 20 160 0 153 -1 160
-20 160 -19 0 -20 -7 -20 -160z"/>
<path d="M4280 3051 c0 -153 1 -161 20 -161 18 0 20 8 22 98 l3 97 34 -97 c26
-78 37 -98 52 -98 18 0 19 10 19 160 0 136 -2 160 -15 160 -12 0 -15 -18 -15
-102 0 -56 -2 -99 -5 -96 -3 3 -20 47 -39 99 -27 75 -37 95 -55 97 -21 3 -21
1 -21 -157z"/>
<path d="M4480 3050 c0 -153 1 -160 20 -160 18 0 20 7 20 70 l0 70 40 0 c36 0
40 3 40 25 0 23 -4 25 -40 25 l-40 0 0 40 0 40 45 0 c41 0 45 2 45 25 0 24 -2
25 -65 25 l-65 0 0 -160z"/>
<path d="M4860 3050 c0 -133 2 -160 15 -160 10 0 15 16 17 62 2 48 7 64 19 66
12 2 24 -16 44 -63 23 -54 32 -65 51 -65 l24 0 -21 52 c-11 29 -24 59 -28 67
-5 9 0 27 15 49 26 38 30 66 13 109 -14 38 -25 43 -91 43 l-58 0 0 -160z m110
90 c6 -12 8 -29 5 -40 -6 -19 -57 -36 -75 -25 -11 7 -14 68 -3 78 15 15 63 6
73 -13z"/>
<path d="M5050 3050 c0 -153 1 -160 20 -160 19 0 20 7 21 108 1 116 5 113 23
-18 10 -74 14 -85 32 -88 19 -3 22 5 33 80 20 146 29 155 30 31 1 -93 4 -113
16 -113 13 0 15 24 15 160 l0 160 -29 0 c-28 0 -29 -3 -40 -63 -6 -35 -11 -75
-11 -88 0 -13 -4 -30 -9 -37 -5 -9 -13 16 -21 70 -17 118 -17 118 -51 118
l-29 0 0 -160z"/>
<path d="M5280 3050 l0 -160 75 0 c73 0 75 1 75 25 0 24 -3 25 -55 25 l-55 0
0 45 0 45 50 0 c46 0 50 2 50 24 0 23 -5 25 -47 28 -48 3 -48 3 -51 41 l-3 37
55 0 c53 0 56 1 56 25 0 24 -2 25 -75 25 l-75 0 0 -160z"/>
<path d="M5460 3050 l0 -161 62 3 c59 3 63 5 82 37 15 26 19 52 19 121 0 69
-4 95 -19 121 -19 32 -23 34 -82 37 l-62 3 0 -161z m104 95 c20 -21 30 -76 22
-132 -8 -57 -20 -73 -57 -73 l-29 0 0 110 c0 110 0 110 24 110 14 0 31 -7 40
-15z"/>
<path d="M6010 3050 c0 -153 1 -160 20 -160 19 0 20 7 20 160 0 153 -1 160
-20 160 -19 0 -20 -7 -20 -160z"/>
<path d="M6080 3050 c0 -153 1 -160 20 -160 19 0 20 7 20 97 0 53 3 94 6 91 3
-4 20 -46 38 -95 26 -70 37 -89 54 -91 22 -3 22 -2 22 157 0 153 -1 161 -20
161 -18 0 -20 -8 -22 -97 l-3 -98 -35 98 c-30 84 -37 97 -57 97 -23 0 -23 0
-23 -160z"/>
<path d="M6470 3050 c0 -136 2 -160 15 -160 12 0 15 13 15 60 l0 60 33 0 c55
0 77 30 77 107 0 73 -19 93 -86 93 l-54 0 0 -160z m89 96 c16 -20 10 -66 -10
-79 -31 -19 -49 -1 -49 48 0 41 2 45 24 45 13 0 29 -6 35 -14z"/>
<path d="M6650 3050 c0 -136 2 -160 15 -160 13 0 15 24 15 160 0 136 -2 160
-15 160 -13 0 -15 -24 -15 -160z"/>
<path d="M6720 3050 c0 -153 1 -160 20 -160 18 0 20 7 20 65 0 52 3 65 16 65
9 0 27 -25 45 -65 22 -49 34 -65 50 -65 24 0 21 16 -15 92 -23 47 -23 48 -3
61 28 18 36 107 13 142 -15 22 -23 25 -81 25 l-65 0 0 -160z m118 73 c3 -27
-1 -35 -22 -44 -39 -18 -56 -6 -56 41 l0 41 38 -3 c34 -3 37 -6 40 -35z"/>
<path d="M6920 3050 l0 -160 76 0 c72 0 75 1 72 23 -3 19 -10 22 -55 25 l-53
3 0 45 0 44 50 0 c47 0 50 2 50 25 0 23 -3 25 -50 25 l-50 0 0 40 0 40 50 0
c47 0 50 2 50 25 0 24 -2 25 -70 25 l-70 0 0 -160z"/>
<path d="M7100 3050 l0 -161 63 3 c60 3 63 4 79 38 24 47 25 188 2 233 -22 43
-30 47 -91 47 l-53 0 0 -160z m102 93 c14 -13 18 -31 18 -90 0 -90 -10 -113
-50 -113 l-30 0 0 110 c0 106 1 110 22 110 12 0 30 -7 40 -17z"/>
</g>
</svg>
